<svg width="34" height="28" viewBox="0 0 34 28" fill="none" xmlns="http://www.w3.org/2000/svg">
<path d="M0 18.6563C0 24.5363 3.48 27.7763 7.44 27.7763C11.04 27.7763 13.8 24.8963 13.8 21.4163C13.8 17.8162 11.4 15.2963 8.04 15.2963C7.44 15.2963 6.6 15.4163 6.48 15.4163C6.84 11.5763 10.32 6.77625 14.16 4.25625L9.72 0.65625C4.2 4.61625 0 11.3363 0 18.6563ZM19.2 18.6563C19.2 24.5363 22.68 27.7763 26.64 27.7763C30.24 27.7763 33.12 24.8963 33.12 21.4163C33.12 17.8162 30.6 15.2963 27.24 15.2963C26.64 15.2963 25.8 15.4163 25.68 15.4163C26.16 11.5763 29.52 6.77625 33.36 4.25625L28.92 0.65625C23.4 4.61625 19.2 11.3363 19.2 18.6563Z" fill="black"/>
</svg>
